<?xml version="1.0" encoding="UTF-8"?><svg xmlns="http://www.w3.org/2000/svg" xmlns:xlink="http://www.w3.org/1999/xlink" width="375pt" zoomAndPan="magnify" viewBox="0 0 375 374.999991" height="374.999991pt" preserveAspectRatio="xMidYMid meet" version="1.2"><defs><g/></defs><g xml:id="surface1" id="surface1"><path style=" stroke:none;fill-rule:nonzero;fill:rgb(1.959229%,38.819885%,40.388489%);fill-opacity:1;" d="M 180.808594 144.59375 L 120.058594 144.59375 L 120.058594 83.84375 Z M 180.808594 144.59375 "/><path style=" stroke:none;fill-rule:nonzero;fill:rgb(1.959229%,38.819885%,40.388489%);fill-opacity:1;" d="M 254.699219 84.085938 L 254.699219 144.835938 L 193.949219 144.835938 Z M 254.699219 84.085938 "/><path style=" stroke:none;fill-rule:nonzero;fill:rgb(1.959229%,38.819885%,40.388489%);fill-opacity:1;" d="M 120.058594 157.683594 L 180.808594 157.683594 L 180.808594 218.433594 L 120.058594 218.433594 Z M 120.058594 157.683594 "/><path style=" stroke:none;fill-rule:nonzero;fill:rgb(1.959229%,38.819885%,40.388489%);fill-opacity:1;" d="M 193.898438 157.683594 L 254.648438 157.683594 L 254.648438 218.433594 L 193.898438 218.433594 Z M 193.898438 157.683594 "/><g style="fill:rgb(0%,0%,0%);fill-opacity:1;"><g transform="translate(74.910864, 264.766375)"><path style="stroke:none;" d="M 36.316406 0 L 31.039062 -27.199219 L 23.917969 -27.199219 L 18.277344 -8.121094 L 12.597656 -27.199219 L 5.480469 -27.199219 L 0.199219 0 L 6.800781 0 L 10 -18.757812 L 15.320312 0 L 21.199219 0 L 26.519531 -18.757812 L 29.71875 0 Z M 36.316406 0 "/></g></g><g style="fill:rgb(0%,0%,0%);fill-opacity:1;"><g transform="translate(115.827226, 264.766375)"><path style="stroke:none;" d="M 17.199219 -10.398438 L 10.320312 -10.398438 L 13.757812 -20.078125 Z M 27.359375 0 L 16.320312 -27.199219 L 11.238281 -27.199219 L 0.199219 0 L 6.640625 0 L 8.597656 -5.480469 L 18.957031 -5.480469 L 20.917969 0 Z M 27.359375 0 "/></g></g><g style="fill:rgb(0%,0%,0%);fill-opacity:1;"><g transform="translate(147.784478, 264.766375)"><path style="stroke:none;" d="M 16 -22 C 18.640625 -22 21.359375 -20.917969 22.679688 -18.039062 L 29.277344 -18.039062 C 27.398438 -23.679688 22 -27.597656 16 -27.597656 C 8.320312 -27.597656 2 -21.277344 2 -13.597656 C 2 -5.917969 8.320312 0.398438 16 0.398438 C 23.757812 0.398438 29.957031 -5.878906 29.957031 -13.597656 L 29.957031 -14.519531 L 16.558594 -14.519531 L 16.558594 -10 L 23.480469 -10 C 22 -5.878906 18.640625 -5.039062 16 -5.039062 C 11.679688 -5.039062 8.078125 -8.917969 8.078125 -13.519531 C 8.078125 -18.117188 11.679688 -22 16 -22 Z M 16 -22 "/></g></g><g style="fill:rgb(0%,0%,0%);fill-opacity:1;"><g transform="translate(183.541358, 264.766375)"><path style="stroke:none;" d="M 17.199219 -10.398438 L 10.320312 -10.398438 L 13.757812 -20.078125 Z M 27.359375 0 L 16.320312 -27.199219 L 11.238281 -27.199219 L 0.199219 0 L 6.640625 0 L 8.597656 -5.480469 L 18.957031 -5.480469 L 20.917969 0 Z M 27.359375 0 "/></g></g><g style="fill:rgb(0%,0%,0%);fill-opacity:1;"><g transform="translate(215.498615, 264.766375)"><path style="stroke:none;" d="M 8.398438 -9.71875 L 12.597656 -9.71875 C 17 -9.71875 20.917969 -12.960938 20.917969 -18.480469 C 20.917969 -23.636719 17 -27.199219 12.597656 -27.199219 L 2.398438 -27.199219 L 2.398438 0 L 8.398438 0 Z M 11.597656 -22.480469 C 13.359375 -22.480469 15.199219 -20.957031 15.199219 -18.480469 C 15.199219 -15.878906 13.359375 -14.4375 11.597656 -14.4375 L 8.398438 -14.4375 L 8.398438 -22.480469 Z M 11.597656 -22.480469 "/></g></g><g style="fill:rgb(0%,0%,0%);fill-opacity:1;"><g transform="translate(241.416483, 264.766375)"><path style="stroke:none;" d="M 17.199219 -10.398438 L 10.320312 -10.398438 L 13.757812 -20.078125 Z M 27.359375 0 L 16.320312 -27.199219 L 11.238281 -27.199219 L 0.199219 0 L 6.640625 0 L 8.597656 -5.480469 L 18.957031 -5.480469 L 20.917969 0 Z M 27.359375 0 "/></g></g><g style="fill:rgb(0%,0%,0%);fill-opacity:1;"><g transform="translate(273.373741, 264.766375)"><path style="stroke:none;" d="M 10.359375 0 L 16.359375 0 L 16.359375 -13 L 26.398438 -27.199219 L 19.238281 -27.199219 L 13.359375 -17.800781 L 7.480469 -27.199219 L 0.320312 -27.199219 L 10.359375 -13 Z M 10.359375 0 "/></g></g><g style="fill:rgb(1.959229%,38.819885%,40.388489%);fill-opacity:1;"><g transform="translate(128.159922, 290.746623)"><path style="stroke:none;" d="M 3.15625 -3.839844 C 4.210938 -3.589844 4.933594 -3.3125 5.316406 -3 C 5.578125 -2.785156 5.710938 -2.507812 5.710938 -2.171875 C 5.710938 -1.835938 5.640625 -1.558594 5.496094 -1.367188 C 5.136719 -0.863281 4.488281 -0.613281 3.574219 -0.613281 C 2.304688 -0.613281 1.585938 -1.042969 1.429688 -1.90625 L 0.445312 -1.90625 C 0.730469 -0.527344 1.777344 0.15625 3.574219 0.15625 C 4.378906 0.15625 5.050781 -0.0117188 5.59375 -0.371094 C 6.238281 -0.792969 6.574219 -1.414062 6.574219 -2.230469 C 6.574219 -2.902344 6.3125 -3.421875 5.785156 -3.78125 C 5.410156 -4.042969 4.8125 -4.285156 3.984375 -4.5 C 3.144531 -4.714844 2.605469 -4.894531 2.351562 -5.027344 C 1.800781 -5.304688 1.523438 -5.6875 1.535156 -6.191406 C 1.535156 -6.457031 1.585938 -6.683594 1.703125 -6.851562 C 2.015625 -7.320312 2.566406 -7.558594 3.359375 -7.558594 C 4.476562 -7.558594 5.113281 -7.199219 5.28125 -6.503906 L 6.191406 -6.503906 C 5.890625 -7.679688 4.945312 -8.28125 3.359375 -8.28125 C 2.640625 -8.28125 2.003906 -8.089844 1.476562 -7.703125 C 0.9375 -7.320312 0.660156 -6.757812 0.660156 -5.988281 C 0.660156 -4.945312 1.5 -4.222656 3.15625 -3.839844 Z M 3.15625 -3.839844 "/></g></g><g style="fill:rgb(1.959229%,38.819885%,40.388489%);fill-opacity:1;"><g transform="translate(135.047937, 290.746623)"><path style="stroke:none;" d="M 4.546875 -0.898438 L 4.546875 0 L 5.386719 0 L 5.386719 -5.28125 L 4.546875 -5.28125 L 4.546875 -3.070312 C 4.546875 -2.328125 4.402344 -1.765625 4.128906 -1.34375 C 3.863281 -0.9375 3.394531 -0.730469 2.746094 -0.730469 C 2.386719 -0.730469 2.125 -0.851562 1.96875 -1.09375 C 1.8125 -1.332031 1.738281 -1.632812 1.738281 -1.980469 L 1.738281 -5.28125 L 0.898438 -5.28125 L 0.898438 -1.980469 C 0.898438 -1.367188 1.054688 -0.863281 1.390625 -0.46875 C 1.726562 -0.0859375 2.183594 0.109375 2.785156 0.109375 C 3.5625 0.109375 4.152344 -0.226562 4.546875 -0.898438 Z M 4.546875 -0.898438 "/></g></g><g style="fill:rgb(1.959229%,38.819885%,40.388489%);fill-opacity:1;"><g transform="translate(141.155946, 290.746623)"><path style="stroke:none;" d="M 5.101562 -2.640625 C 5.101562 -2.125 4.921875 -1.667969 4.558594 -1.296875 C 4.199219 -0.910156 3.757812 -0.71875 3.238281 -0.71875 C 2.710938 -0.71875 2.269531 -0.910156 1.90625 -1.296875 C 1.546875 -1.667969 1.378906 -2.125 1.378906 -2.640625 C 1.378906 -3.144531 1.546875 -3.601562 1.90625 -3.984375 C 2.269531 -4.367188 2.710938 -4.558594 3.238281 -4.558594 C 3.757812 -4.558594 4.199219 -4.367188 4.558594 -3.984375 C 4.921875 -3.601562 5.101562 -3.144531 5.101562 -2.640625 Z M 5.941406 0 L 5.941406 -5.28125 L 5.101562 -5.28125 L 5.101562 -4.367188 C 5.050781 -4.441406 4.992188 -4.5 4.945312 -4.558594 C 4.441406 -5.113281 3.828125 -5.398438 3.109375 -5.398438 C 2.375 -5.398438 1.765625 -5.113281 1.261719 -4.558594 C 0.78125 -4.007812 0.539062 -3.371094 0.539062 -2.640625 C 0.539062 -1.894531 0.78125 -1.261719 1.261719 -0.71875 C 1.765625 -0.15625 2.375 0.121094 3.109375 0.121094 C 3.828125 0.121094 4.441406 -0.15625 4.945312 -0.71875 C 4.992188 -0.769531 5.050781 -0.828125 5.101562 -0.898438 L 5.101562 0 Z M 5.941406 0 "/></g></g><g style="fill:rgb(1.959229%,38.819885%,40.388489%);fill-opacity:1;"><g transform="translate(147.995965, 290.746623)"><path style="stroke:none;" d=""/></g></g><g style="fill:rgb(1.959229%,38.819885%,40.388489%);fill-opacity:1;"><g transform="translate(151.23597, 290.746623)"><path style="stroke:none;" d="M 1.738281 0 L 1.738281 -9 L 0.898438 -9 L 0.898438 0 Z M 1.738281 0 "/></g></g><g style="fill:rgb(1.959229%,38.819885%,40.388489%);fill-opacity:1;"><g transform="translate(153.875973, 290.746623)"><path style="stroke:none;" d="M 5.21875 -2.664062 C 5.21875 -2.136719 5.027344 -1.691406 4.65625 -1.320312 C 4.273438 -0.9375 3.828125 -0.757812 3.300781 -0.757812 C 2.773438 -0.757812 2.316406 -0.9375 1.945312 -1.320312 C 1.558594 -1.691406 1.378906 -2.136719 1.378906 -2.664062 C 1.378906 -3.191406 1.558594 -3.636719 1.945312 -4.019531 C 2.316406 -4.390625 2.773438 -4.585938 3.300781 -4.585938 C 3.828125 -4.585938 4.273438 -4.390625 4.65625 -4.019531 C 5.027344 -3.636719 5.21875 -3.191406 5.21875 -2.664062 Z M 6.058594 -2.664062 C 6.058594 -3.421875 5.785156 -4.066406 5.242188 -4.609375 C 4.703125 -5.148438 4.054688 -5.425781 3.300781 -5.425781 C 2.53125 -5.425781 1.882812 -5.148438 1.34375 -4.609375 C 0.804688 -4.066406 0.539062 -3.421875 0.539062 -2.664062 C 0.539062 -1.894531 0.804688 -1.246094 1.34375 -0.71875 C 1.882812 -0.179688 2.542969 0.0859375 3.300781 0.0859375 C 4.042969 0.0859375 4.703125 -0.179688 5.242188 -0.71875 C 5.785156 -1.246094 6.058594 -1.894531 6.058594 -2.664062 Z M 6.058594 -2.664062 "/></g></g><g style="fill:rgb(1.959229%,38.819885%,40.388489%);fill-opacity:1;"><g transform="translate(160.475986, 290.746623)"><path style="stroke:none;" d="M 1.980469 -6.71875 C 1.980469 -6.863281 1.921875 -6.996094 1.824219 -7.105469 C 1.714844 -7.199219 1.585938 -7.261719 1.441406 -7.261719 C 1.285156 -7.261719 1.152344 -7.199219 1.054688 -7.105469 C 0.949219 -6.996094 0.898438 -6.863281 0.898438 -6.71875 C 0.898438 -6.5625 0.949219 -6.433594 1.054688 -6.335938 C 1.152344 -6.226562 1.285156 -6.179688 1.441406 -6.179688 C 1.585938 -6.179688 1.714844 -6.226562 1.824219 -6.335938 C 1.921875 -6.433594 1.980469 -6.5625 1.980469 -6.71875 Z M 1.859375 1.007812 L 1.859375 -5.28125 L 1.019531 -5.28125 L 1.019531 1.019531 C 1.019531 1.609375 0.839844 1.96875 0.503906 2.101562 C 0.359375 2.160156 0.214844 2.171875 0.0703125 2.136719 C -0.0703125 2.101562 -0.203125 2.027344 -0.300781 1.933594 L -0.300781 2.734375 C -0.144531 2.84375 0.0585938 2.902344 0.3125 2.914062 C 0.550781 2.941406 0.792969 2.878906 1.019531 2.761719 C 1.246094 2.640625 1.441406 2.449219 1.609375 2.171875 C 1.777344 1.894531 1.859375 1.511719 1.859375 1.007812 Z M 1.859375 1.007812 "/></g></g><g style="fill:rgb(1.959229%,38.819885%,40.388489%);fill-opacity:1;"><g transform="translate(163.295994, 290.746623)"><path style="stroke:none;" d="M 5.101562 -2.640625 C 5.101562 -2.125 4.921875 -1.667969 4.558594 -1.296875 C 4.199219 -0.910156 3.757812 -0.71875 3.238281 -0.71875 C 2.710938 -0.71875 2.269531 -0.910156 1.90625 -1.296875 C 1.546875 -1.667969 1.378906 -2.125 1.378906 -2.640625 C 1.378906 -3.144531 1.546875 -3.601562 1.90625 -3.984375 C 2.269531 -4.367188 2.710938 -4.558594 3.238281 -4.558594 C 3.757812 -4.558594 4.199219 -4.367188 4.558594 -3.984375 C 4.921875 -3.601562 5.101562 -3.144531 5.101562 -2.640625 Z M 5.941406 0 L 5.941406 -5.28125 L 5.101562 -5.28125 L 5.101562 -4.367188 C 5.050781 -4.441406 4.992188 -4.5 4.945312 -4.558594 C 4.441406 -5.113281 3.828125 -5.398438 3.109375 -5.398438 C 2.375 -5.398438 1.765625 -5.113281 1.261719 -4.558594 C 0.78125 -4.007812 0.539062 -3.371094 0.539062 -2.640625 C 0.539062 -1.894531 0.78125 -1.261719 1.261719 -0.71875 C 1.765625 -0.15625 2.375 0.121094 3.109375 0.121094 C 3.828125 0.121094 4.441406 -0.15625 4.945312 -0.71875 C 4.992188 -0.769531 5.050781 -0.828125 5.101562 -0.898438 L 5.101562 0 Z M 5.941406 0 "/></g></g><g style="fill:rgb(1.959229%,38.819885%,40.388489%);fill-opacity:1;"><g transform="translate(170.136012, 290.746623)"><path style="stroke:none;" d=""/></g></g><g style="fill:rgb(1.959229%,38.819885%,40.388489%);fill-opacity:1;"><g transform="translate(173.376018, 290.746623)"><path style="stroke:none;" d="M 5.101562 -2.640625 C 5.101562 -2.125 4.921875 -1.667969 4.558594 -1.296875 C 4.199219 -0.910156 3.757812 -0.71875 3.238281 -0.71875 C 2.710938 -0.71875 2.269531 -0.910156 1.90625 -1.296875 C 1.546875 -1.667969 1.378906 -2.125 1.378906 -2.640625 C 1.378906 -3.144531 1.546875 -3.601562 1.90625 -3.984375 C 2.269531 -4.367188 2.710938 -4.558594 3.238281 -4.558594 C 3.757812 -4.558594 4.199219 -4.367188 4.558594 -3.984375 C 4.921875 -3.601562 5.101562 -3.144531 5.101562 -2.640625 Z M 5.941406 0 L 5.941406 -9 L 5.101562 -9 L 5.101562 -4.367188 C 5.050781 -4.441406 4.992188 -4.5 4.945312 -4.558594 C 4.441406 -5.113281 3.828125 -5.398438 3.109375 -5.398438 C 2.375 -5.398438 1.765625 -5.113281 1.261719 -4.558594 C 0.78125 -4.007812 0.539062 -3.371094 0.539062 -2.640625 C 0.539062 -1.894531 0.78125 -1.261719 1.261719 -0.71875 C 1.765625 -0.15625 2.375 0.121094 3.109375 0.121094 C 3.828125 0.121094 4.441406 -0.15625 4.945312 -0.71875 C 4.992188 -0.769531 5.050781 -0.828125 5.101562 -0.898438 L 5.101562 0 Z M 5.941406 0 "/></g></g><g style="fill:rgb(1.959229%,38.819885%,40.388489%);fill-opacity:1;"><g transform="translate(180.216036, 290.746623)"><path style="stroke:none;" d="M 6.058594 -2.761719 C 6.058594 -3.480469 5.773438 -4.105469 5.21875 -4.644531 C 4.679688 -5.160156 4.03125 -5.425781 3.300781 -5.425781 C 2.53125 -5.425781 1.882812 -5.148438 1.34375 -4.609375 C 0.804688 -4.066406 0.539062 -3.421875 0.539062 -2.664062 C 0.539062 -1.894531 0.804688 -1.246094 1.34375 -0.71875 C 1.597656 -0.46875 1.882812 -0.277344 2.21875 -0.132812 C 2.554688 0.0117188 2.953125 0.0859375 3.421875 0.0859375 C 3.886719 0.0859375 4.34375 -0.0585938 4.800781 -0.347656 C 5.257812 -0.636719 5.59375 -1.042969 5.820312 -1.546875 L 4.859375 -1.546875 C 4.667969 -1.296875 4.441406 -1.105469 4.164062 -0.960938 C 3.886719 -0.816406 3.601562 -0.757812 3.300781 -0.757812 C 2.84375 -0.757812 2.4375 -0.898438 2.074219 -1.199219 C 1.714844 -1.488281 1.488281 -1.859375 1.414062 -2.316406 L 6.058594 -2.316406 Z M 5.171875 -3.035156 L 1.429688 -3.035156 C 1.476562 -3.253906 1.558594 -3.457031 1.679688 -3.648438 C 2.0625 -4.273438 2.605469 -4.585938 3.300781 -4.585938 C 3.742188 -4.585938 4.140625 -4.441406 4.488281 -4.152344 C 4.847656 -3.851562 5.0625 -3.480469 5.171875 -3.035156 Z M 5.171875 -3.035156 "/></g></g><g style="fill:rgb(1.959229%,38.819885%,40.388489%);fill-opacity:1;"><g transform="translate(186.756048, 290.746623)"><path style="stroke:none;" d=""/></g></g><g style="fill:rgb(1.959229%,38.819885%,40.388489%);fill-opacity:1;"><g transform="translate(189.996054, 290.746623)"><path style="stroke:none;" d="M 2.554688 0.503906 L 4.980469 -5.28125 L 4.066406 -5.28125 L 2.554688 -1.355469 L 1.03125 -5.28125 L 0.121094 -5.28125 Z M 2.554688 0.503906 "/></g></g><g style="fill:rgb(1.959229%,38.819885%,40.388489%);fill-opacity:1;"><g transform="translate(195.096067, 290.746623)"><path style="stroke:none;" d="M 5.101562 -2.640625 C 5.101562 -2.125 4.921875 -1.667969 4.558594 -1.296875 C 4.199219 -0.910156 3.757812 -0.71875 3.238281 -0.71875 C 2.710938 -0.71875 2.269531 -0.910156 1.90625 -1.296875 C 1.546875 -1.667969 1.378906 -2.125 1.378906 -2.640625 C 1.378906 -3.144531 1.546875 -3.601562 1.90625 -3.984375 C 2.269531 -4.367188 2.710938 -4.558594 3.238281 -4.558594 C 3.757812 -4.558594 4.199219 -4.367188 4.558594 -3.984375 C 4.921875 -3.601562 5.101562 -3.144531 5.101562 -2.640625 Z M 5.941406 0 L 5.941406 -5.28125 L 5.101562 -5.28125 L 5.101562 -4.367188 C 5.050781 -4.441406 4.992188 -4.5 4.945312 -4.558594 C 4.441406 -5.113281 3.828125 -5.398438 3.109375 -5.398438 C 2.375 -5.398438 1.765625 -5.113281 1.261719 -4.558594 C 0.78125 -4.007812 0.539062 -3.371094 0.539062 -2.640625 C 0.539062 -1.894531 0.78125 -1.261719 1.261719 -0.71875 C 1.765625 -0.15625 2.375 0.121094 3.109375 0.121094 C 3.828125 0.121094 4.441406 -0.15625 4.945312 -0.71875 C 4.992188 -0.769531 5.050781 -0.828125 5.101562 -0.898438 L 5.101562 0 Z M 5.941406 0 "/></g></g><g style="fill:rgb(1.959229%,38.819885%,40.388489%);fill-opacity:1;"><g transform="translate(201.936086, 290.746623)"><path style="stroke:none;" d="M 3.613281 -4.1875 L 3.613281 -5.28125 C 3.445312 -5.351562 3.265625 -5.386719 3.085938 -5.386719 C 2.484375 -5.386719 2.050781 -5.050781 1.777344 -4.402344 L 1.738281 -4.1875 L 1.738281 -5.28125 L 0.898438 -5.28125 L 0.898438 0 L 1.738281 0 L 1.738281 -2.640625 C 1.738281 -3.070312 1.835938 -3.457031 2.039062 -3.804688 C 2.136719 -3.984375 2.269531 -4.140625 2.425781 -4.261719 C 2.578125 -4.378906 2.773438 -4.453125 2.988281 -4.453125 C 3.203125 -4.453125 3.40625 -4.355469 3.613281 -4.1875 Z M 3.613281 -4.1875 "/></g></g><g style="fill:rgb(1.959229%,38.819885%,40.388489%);fill-opacity:1;"><g transform="translate(205.668095, 290.746623)"><path style="stroke:none;" d="M 1.753906 -7.105469 C 1.644531 -7.199219 1.511719 -7.261719 1.367188 -7.261719 C 1.222656 -7.261719 1.09375 -7.199219 0.996094 -7.105469 C 0.886719 -6.996094 0.839844 -6.863281 0.839844 -6.71875 C 0.839844 -6.574219 0.886719 -6.445312 0.996094 -6.347656 C 1.09375 -6.238281 1.222656 -6.191406 1.367188 -6.191406 C 1.511719 -6.191406 1.644531 -6.238281 1.753906 -6.347656 C 1.847656 -6.445312 1.90625 -6.574219 1.90625 -6.71875 C 1.90625 -6.863281 1.847656 -6.996094 1.753906 -7.105469 Z M 1.800781 0 L 1.800781 -5.28125 L 0.960938 -5.28125 L 0.960938 0 Z M 1.800781 0 "/></g></g><g style="fill:rgb(1.959229%,38.819885%,40.388489%);fill-opacity:1;"><g transform="translate(208.416096, 290.746623)"><path style="stroke:none;" d="M 6.058594 -2.761719 C 6.058594 -3.480469 5.773438 -4.105469 5.21875 -4.644531 C 4.679688 -5.160156 4.03125 -5.425781 3.300781 -5.425781 C 2.53125 -5.425781 1.882812 -5.148438 1.34375 -4.609375 C 0.804688 -4.066406 0.539062 -3.421875 0.539062 -2.664062 C 0.539062 -1.894531 0.804688 -1.246094 1.34375 -0.71875 C 1.597656 -0.46875 1.882812 -0.277344 2.21875 -0.132812 C 2.554688 0.0117188 2.953125 0.0859375 3.421875 0.0859375 C 3.886719 0.0859375 4.34375 -0.0585938 4.800781 -0.347656 C 5.257812 -0.636719 5.59375 -1.042969 5.820312 -1.546875 L 4.859375 -1.546875 C 4.667969 -1.296875 4.441406 -1.105469 4.164062 -0.960938 C 3.886719 -0.816406 3.601562 -0.757812 3.300781 -0.757812 C 2.84375 -0.757812 2.4375 -0.898438 2.074219 -1.199219 C 1.714844 -1.488281 1.488281 -1.859375 1.414062 -2.316406 L 6.058594 -2.316406 Z M 5.171875 -3.035156 L 1.429688 -3.035156 C 1.476562 -3.253906 1.558594 -3.457031 1.679688 -3.648438 C 2.0625 -4.273438 2.605469 -4.585938 3.300781 -4.585938 C 3.742188 -4.585938 4.140625 -4.441406 4.488281 -4.152344 C 4.847656 -3.851562 5.0625 -3.480469 5.171875 -3.035156 Z M 5.171875 -3.035156 "/></g></g><g style="fill:rgb(1.959229%,38.819885%,40.388489%);fill-opacity:1;"><g transform="translate(214.956108, 290.746623)"><path style="stroke:none;" d="M 5.101562 -2.640625 C 5.101562 -2.125 4.921875 -1.667969 4.558594 -1.296875 C 4.199219 -0.910156 3.757812 -0.71875 3.238281 -0.71875 C 2.710938 -0.71875 2.269531 -0.910156 1.90625 -1.296875 C 1.546875 -1.667969 1.378906 -2.125 1.378906 -2.640625 C 1.378906 -3.144531 1.546875 -3.601562 1.90625 -3.984375 C 2.269531 -4.367188 2.710938 -4.558594 3.238281 -4.558594 C 3.757812 -4.558594 4.199219 -4.367188 4.558594 -3.984375 C 4.921875 -3.601562 5.101562 -3.144531 5.101562 -2.640625 Z M 5.941406 0 L 5.941406 -9 L 5.101562 -9 L 5.101562 -4.367188 C 5.050781 -4.441406 4.992188 -4.5 4.945312 -4.558594 C 4.441406 -5.113281 3.828125 -5.398438 3.109375 -5.398438 C 2.375 -5.398438 1.765625 -5.113281 1.261719 -4.558594 C 0.78125 -4.007812 0.539062 -3.371094 0.539062 -2.640625 C 0.539062 -1.894531 0.78125 -1.261719 1.261719 -0.71875 C 1.765625 -0.15625 2.375 0.121094 3.109375 0.121094 C 3.828125 0.121094 4.441406 -0.15625 4.945312 -0.71875 C 4.992188 -0.769531 5.050781 -0.828125 5.101562 -0.898438 L 5.101562 0 Z M 5.941406 0 "/></g></g><g style="fill:rgb(1.959229%,38.819885%,40.388489%);fill-opacity:1;"><g transform="translate(221.796127, 290.746623)"><path style="stroke:none;" d="M 5.101562 -2.640625 C 5.101562 -2.125 4.921875 -1.667969 4.558594 -1.296875 C 4.199219 -0.910156 3.757812 -0.71875 3.238281 -0.71875 C 2.710938 -0.71875 2.269531 -0.910156 1.90625 -1.296875 C 1.546875 -1.667969 1.378906 -2.125 1.378906 -2.640625 C 1.378906 -3.144531 1.546875 -3.601562 1.90625 -3.984375 C 2.269531 -4.367188 2.710938 -4.558594 3.238281 -4.558594 C 3.757812 -4.558594 4.199219 -4.367188 4.558594 -3.984375 C 4.921875 -3.601562 5.101562 -3.144531 5.101562 -2.640625 Z M 5.941406 0 L 5.941406 -5.28125 L 5.101562 -5.28125 L 5.101562 -4.367188 C 5.050781 -4.441406 4.992188 -4.5 4.945312 -4.558594 C 4.441406 -5.113281 3.828125 -5.398438 3.109375 -5.398438 C 2.375 -5.398438 1.765625 -5.113281 1.261719 -4.558594 C 0.78125 -4.007812 0.539062 -3.371094 0.539062 -2.640625 C 0.539062 -1.894531 0.78125 -1.261719 1.261719 -0.71875 C 1.765625 -0.15625 2.375 0.121094 3.109375 0.121094 C 3.828125 0.121094 4.441406 -0.15625 4.945312 -0.71875 C 4.992188 -0.769531 5.050781 -0.828125 5.101562 -0.898438 L 5.101562 0 Z M 5.941406 0 "/></g></g><g style="fill:rgb(1.959229%,38.819885%,40.388489%);fill-opacity:1;"><g transform="translate(228.636146, 290.746623)"><path style="stroke:none;" d="M 5.101562 -2.640625 C 5.101562 -2.125 4.921875 -1.667969 4.558594 -1.296875 C 4.199219 -0.910156 3.757812 -0.71875 3.238281 -0.71875 C 2.710938 -0.71875 2.269531 -0.910156 1.90625 -1.296875 C 1.546875 -1.667969 1.378906 -2.125 1.378906 -2.640625 C 1.378906 -3.144531 1.546875 -3.601562 1.90625 -3.984375 C 2.269531 -4.367188 2.710938 -4.558594 3.238281 -4.558594 C 3.757812 -4.558594 4.199219 -4.367188 4.558594 -3.984375 C 4.921875 -3.601562 5.101562 -3.144531 5.101562 -2.640625 Z M 5.941406 0 L 5.941406 -9 L 5.101562 -9 L 5.101562 -4.367188 C 5.050781 -4.441406 4.992188 -4.5 4.945312 -4.558594 C 4.441406 -5.113281 3.828125 -5.398438 3.109375 -5.398438 C 2.375 -5.398438 1.765625 -5.113281 1.261719 -4.558594 C 0.78125 -4.007812 0.539062 -3.371094 0.539062 -2.640625 C 0.539062 -1.894531 0.78125 -1.261719 1.261719 -0.71875 C 1.765625 -0.15625 2.375 0.121094 3.109375 0.121094 C 3.828125 0.121094 4.441406 -0.15625 4.945312 -0.71875 C 4.992188 -0.769531 5.050781 -0.828125 5.101562 -0.898438 L 5.101562 0 Z M 5.941406 0 "/></g></g><g style="fill:rgb(1.959229%,38.819885%,40.388489%);fill-opacity:1;"><g transform="translate(235.476165, 290.746623)"><path style="stroke:none;" d="M 6.058594 -2.761719 C 6.058594 -3.480469 5.773438 -4.105469 5.21875 -4.644531 C 4.679688 -5.160156 4.03125 -5.425781 3.300781 -5.425781 C 2.53125 -5.425781 1.882812 -5.148438 1.34375 -4.609375 C 0.804688 -4.066406 0.539062 -3.421875 0.539062 -2.664062 C 0.539062 -1.894531 0.804688 -1.246094 1.34375 -0.71875 C 1.597656 -0.46875 1.882812 -0.277344 2.21875 -0.132812 C 2.554688 0.0117188 2.953125 0.0859375 3.421875 0.0859375 C 3.886719 0.0859375 4.34375 -0.0585938 4.800781 -0.347656 C 5.257812 -0.636719 5.59375 -1.042969 5.820312 -1.546875 L 4.859375 -1.546875 C 4.667969 -1.296875 4.441406 -1.105469 4.164062 -0.960938 C 3.886719 -0.816406 3.601562 -0.757812 3.300781 -0.757812 C 2.84375 -0.757812 2.4375 -0.898438 2.074219 -1.199219 C 1.714844 -1.488281 1.488281 -1.859375 1.414062 -2.316406 L 6.058594 -2.316406 Z M 5.171875 -3.035156 L 1.429688 -3.035156 C 1.476562 -3.253906 1.558594 -3.457031 1.679688 -3.648438 C 2.0625 -4.273438 2.605469 -4.585938 3.300781 -4.585938 C 3.742188 -4.585938 4.140625 -4.441406 4.488281 -4.152344 C 4.847656 -3.851562 5.0625 -3.480469 5.171875 -3.035156 Z M 5.171875 -3.035156 "/></g></g><g style="fill:rgb(1.959229%,38.819885%,40.388489%);fill-opacity:1;"><g transform="translate(242.016176, 290.746623)"><path style="stroke:none;" d="M 1.65625 -0.742188 C 1.453125 -0.886719 1.296875 -1.128906 1.210938 -1.476562 L 0.324219 -1.476562 C 0.503906 -0.382812 1.199219 0.15625 2.425781 0.15625 C 2.710938 0.15625 2.976562 0.132812 3.226562 0.0585938 C 3.480469 -0.0117188 3.695312 -0.109375 3.898438 -0.238281 C 4.308594 -0.515625 4.511719 -0.9375 4.511719 -1.5 C 4.511719 -2.074219 4.246094 -2.484375 3.695312 -2.746094 C 3.46875 -2.855469 3.214844 -2.941406 2.941406 -3 C 2.675781 -3.058594 2.425781 -3.132812 2.195312 -3.203125 C 1.957031 -3.277344 1.765625 -3.371094 1.609375 -3.480469 C 1.453125 -3.589844 1.367188 -3.757812 1.367188 -3.996094 C 1.367188 -4.234375 1.464844 -4.414062 1.65625 -4.523438 C 1.847656 -4.644531 2.074219 -4.703125 2.328125 -4.703125 C 2.59375 -4.703125 2.820312 -4.644531 3 -4.546875 C 3.179688 -4.453125 3.324219 -4.261719 3.40625 -3.972656 L 4.308594 -3.972656 C 4.199219 -4.5 3.972656 -4.871094 3.636719 -5.074219 C 3.289062 -5.292969 2.867188 -5.398438 2.351562 -5.398438 C 1.847656 -5.398438 1.402344 -5.257812 1.03125 -4.992188 C 0.671875 -4.714844 0.480469 -4.320312 0.480469 -3.792969 C 0.480469 -3.539062 0.550781 -3.3125 0.683594 -3.121094 C 0.828125 -2.914062 1.03125 -2.761719 1.296875 -2.640625 C 1.535156 -2.53125 1.789062 -2.449219 2.050781 -2.375 C 2.316406 -2.316406 2.566406 -2.242188 2.808594 -2.171875 C 3.347656 -1.992188 3.625 -1.726562 3.625 -1.390625 C 3.625 -0.816406 3.238281 -0.539062 2.472656 -0.539062 C 2.148438 -0.539062 1.871094 -0.601562 1.65625 -0.742188 Z M 1.65625 -0.742188 "/></g></g></g></svg>